# xmcd
#
# Track frame offsets:
#	150
#	15092
#	28548
#	41253
#	62358
#	76642
#	90496
#	106108
#	120696
#	133962
#	151346
#	169643
#	185209
#	201336
#
# Disc length: 2878 seconds
# Revision: 1
# Processed by: cddbd v1.5.2PL0 Copyright (c) Steve Scherf et al.
# Submitted via: dBpowerAMP V12.0
#
DISCID=a10b3c0e
DTITLE=Monroe Crossing - The Road Has No End
DYEAR=2012
DGENRE=Country
TTITLE0=Cool Cool Ride
TTITLE1=Chattanooga
TTITLE2=Bullet Train
TTITLE3=Hobos In The Roundhouse
TTITLE4=Cicada
TTITLE5=Rain Was Turning Into Snow
TTITLE6=Foggy River
TTITLE7=Heavenly Table
TTITLE8=Easy To Get Lost
TTITLE9=If The World Were Filled With You
TTITLE10=Doing My Time
TTITLE11=Bread and Milk
TTITLE12=Last Letter Home
TTITLE13=Long Cool Woman In A Black Dress
EXTD=
EXTT0=
EXTT1=
EXTT2=
EXTT3=
EXTT4=
EXTT5=
EXTT6=
EXTT7=
EXTT8=
EXTT9=
EXTT10=
EXTT11=
EXTT12=
EXTT13=
PLAYORDER=
